<svg width="23" height="29" viewBox="0 0 23 29" fill="none" xmlns="http://www.w3.org/2000/svg">
<path d="M8.62765 18.1431L0.839844 7.61536H5.89516C6.14971 7.61536 6.38836 7.73805 6.53552 7.94385L11.6942 15.1351L17.0638 7.61536H21.5662C21.9242 7.61536 22.131 8.02301 21.9202 8.30797L14.6375 18.1431L22.5486 28.7499H17.553C17.2587 28.7499 16.9842 28.6114 16.8172 28.3739L11.5749 21.1114L6.07812 28.7499H1.22168C0.91144 28.7499 0.732458 28.3977 0.919397 28.1484L8.6356 18.1391L8.62765 18.1431Z" fill="#56B2A1"/>
<path d="M0.839844 0.352539H21.781C22.2026 0.352539 22.5486 0.692909 22.5486 1.11639V3.85122H1.53987C1.15406 3.85122 0.839844 3.53856 0.839844 3.15465V0.352539Z" fill="#56B2A1"/>
</svg>
